<?xml version="1.0"?>
<svg xmlns="http://www.w3.org/2000/svg" xmlns:xlink="http://www.w3.org/1999/xlink" version="1.1" id="Capa_1" x="0px" y="0px" viewBox="0 0 488.361 488.361" style="enable-background:new 0 0 488.361 488.361;" xml:space="preserve" width="512px" height="512px" class=""><g><g>
	<g id="XMLID_69_">
		<path d="M488.23,353.58c-6.2-41.6-22.3-82.5-60.3-95.7c14.8-9.2,24.6-25.6,24.6-44.3c0-28.8-23.3-52.1-52.1-52.1    c-28.8,0-52.1,23.3-52.1,52.1c0,18.7,9.8,35.1,24.6,44.3c-10.9,3.8-19.9,9.8-27.5,17.4c10.4,19.8,17.7,44.2,22,72.7    c1,7-0.2,14.1-3.4,20.2h111.6C483.33,368.28,489.33,361.38,488.23,353.58z M400.33,196.68c-9.4,0-17,7.6-17,17    c0,4.3-3.5,7.8-7.8,7.8s-7.8-3.5-7.8-7.8c0-17.9,14.6-32.5,32.5-32.5c4.3,0,7.8,3.5,7.8,7.8    C408.13,193.18,404.63,196.68,400.33,196.68z M277.23,235.78c17.7-11,29.5-30.7,29.5-53.2c0-34.6-28-62.6-62.6-62.6    s-62.6,28-62.6,62.6c0,22.4,11.8,42.1,29.5,53.2c-45.7,15.8-65,65-72.4,114.8c-1.4,9.3,5.9,17.6,15.3,17.6h180.3    c9.4,0,16.7-8.3,15.3-17.6C342.23,300.78,322.83,251.58,277.23,235.78z M244.13,162.28c-11.2,0-20.4,9.1-20.4,20.4    c0,5.2-4.2,9.3-9.3,9.3c-5.2,0-9.3-4.2-9.3-9.3c0-21.5,17.5-39.1,39.1-39.1c5.2,0,9.3,4.2,9.3,9.3    C253.43,158.08,249.33,162.28,244.13,162.28z M488.23,353.58c-6.2-41.6-22.3-82.5-60.3-95.7c14.8-9.2,24.6-25.6,24.6-44.3    c0-28.8-23.3-52.1-52.1-52.1c-28.8,0-52.1,23.3-52.1,52.1c0,18.7,9.8,35.1,24.6,44.3c-10.9,3.8-19.9,9.8-27.5,17.4    c10.4,19.8,17.7,44.2,22,72.7c1,7-0.2,14.1-3.4,20.2h111.6C483.33,368.28,489.33,361.38,488.23,353.58z M400.33,196.68    c-9.4,0-17,7.6-17,17c0,4.3-3.5,7.8-7.8,7.8s-7.8-3.5-7.8-7.8c0-17.9,14.6-32.5,32.5-32.5c4.3,0,7.8,3.5,7.8,7.8    C408.13,193.18,404.63,196.68,400.33,196.68z M120.93,348.08c4.2-28.5,11.6-52.9,22-72.7c-7.6-7.6-16.6-13.7-27.5-17.4    c14.8-9.2,24.6-25.6,24.6-44.3c0-28.8-23.3-52.1-52.1-52.1s-52.1,23.3-52.1,52.1c0,18.7,9.8,35.1,24.6,44.3    c-38,13.1-54.2,54.1-60.3,95.7c-1.1,7.7,4.9,14.7,12.8,14.7h111.6C121.13,362.08,119.93,355.08,120.93,348.08z M87.93,196.68    c-9.4,0-17,7.6-17,17c0,4.3-3.5,7.8-7.8,7.8s-7.8-3.5-7.8-7.8c0-17.9,14.6-32.5,32.5-32.5c4.3,0,7.8,3.5,7.8,7.8    C95.63,193.18,92.23,196.68,87.93,196.68z" data-original="#000000" class="active-path" data-old_color="#000000" fill="#040B27"/>
	</g>
</g></g> </svg>
